<svg width="32" height="32" viewBox="0 0 32 32" fill="none" xmlns="http://www.w3.org/2000/svg">
<path d="M20.0667 6.66683C21.369 6.92092 22.5659 7.55784 23.5041 8.49608C24.4423 9.43431 25.0793 10.6312 25.3333 11.9335M20.0667 1.3335C22.7724 1.63408 25.2955 2.84573 27.2217 4.76951C29.1479 6.69328 30.3627 9.21484 30.6667 11.9202M29.3333 22.5602V26.5602C29.3349 26.9315 29.2588 27.2991 29.11 27.6393C28.9613 27.9795 28.7431 28.2849 28.4695 28.536C28.1958 28.787 27.8728 28.9781 27.521 29.0971C27.1692 29.2161 26.7965 29.2602 26.4267 29.2268C22.3238 28.781 18.3827 27.379 14.92 25.1335C11.6985 23.0864 8.96713 20.3551 6.92001 17.1335C4.66665 13.6551 3.26434 9.69482 2.82668 5.5735C2.79336 5.20479 2.83718 4.83318 2.95535 4.48233C3.07351 4.13148 3.26344 3.80908 3.51303 3.53566C3.76263 3.26223 4.06642 3.04378 4.40507 2.89419C4.74372 2.74461 5.1098 2.66718 5.48001 2.66683H9.48001C10.1271 2.66046 10.7544 2.8896 11.245 3.31154C11.7357 3.73348 12.0561 4.31942 12.1467 4.96016C12.3155 6.24025 12.6286 7.49713 13.08 8.70683C13.2594 9.18406 13.2982 9.70272 13.1919 10.2013C13.0855 10.7 12.8385 11.1576 12.48 11.5202L10.7867 13.2135C12.6848 16.5516 15.4486 19.3154 18.7867 21.2135L20.48 19.5202C20.8425 19.1617 21.3002 18.9146 21.7988 18.8083C22.2975 18.7019 22.8161 18.7408 23.2933 18.9202C24.503 19.3716 25.7599 19.6847 27.04 19.8535C27.6877 19.9449 28.2792 20.2711 28.7021 20.7702C29.1249 21.2692 29.3496 21.9063 29.3333 22.5602Z" stroke="#3FA6BC" stroke-width="2" stroke-linecap="round" stroke-linejoin="round"/>
</svg>
