<svg width="25" height="27" viewBox="0 0 25 27" fill="none" xmlns="http://www.w3.org/2000/svg">
<path d="M21.875 11.4167C21.875 18.7083 12.5 24.9583 12.5 24.9583C12.5 24.9583 3.125 18.7083 3.125 11.4167C3.125 8.93025 4.11272 6.54568 5.87087 4.78753C7.62903 3.02938 10.0136 2.04166 12.5 2.04166C14.9864 2.04166 17.371 3.02938 19.1291 4.78753C20.8873 6.54568 21.875 8.93025 21.875 11.4167Z" stroke="#3FA6BC" stroke-width="2.5" stroke-linecap="round" stroke-linejoin="round"/>
<path d="M12.5 14.5417C14.2259 14.5417 15.625 13.1425 15.625 11.4167C15.625 9.69077 14.2259 8.29166 12.5 8.29166C10.7741 8.29166 9.375 9.69077 9.375 11.4167C9.375 13.1425 10.7741 14.5417 12.5 14.5417Z" stroke="#3FA6BC" stroke-width="2.5" stroke-linecap="round" stroke-linejoin="round"/>
</svg>
